# xmcd CD database file
#
# Track frame offsets:
#	150
#	16168
#	29923
#	46683
#	62820
#	77593
#	100373
#	114638
#	129518
#	143343
#	159670
#	174878
#	195210
#	205783
#	223778
#	242113
#
# Disc length: 3392 seconds
#
# Revision: 0
# Processed by: cddbd v1.4PL0 Copyright (c) Steve Scherf et al.
# Submitted via: Feurio! 1.63 - http://www.feurio.com
#
DISCID=d20d3e10
DTITLE=Various Artist - Country Pur
DYEAR=1900
DGENRE=
TTITLE0=Truck Stop - Ich möcht So Gern Dave Dudley Hörn
TTITLE1=Kevin Henderson - Endlich Daheim
TTITLE2=Tom Astor - Freundschaft
TTITLE3=Larry Schuba &Western Union - Dieselcowboys
TTITLE4=The Union - Oh Mi Oh Mei
TTITLE5=Colorado Five - Ein Wochenend Lang
TTITLE6=Ronny - Tom Dooley
TTITLE7=Greyhounds - Tausend Stürme
TTITLE8=Linda Feller  - Minuten Im Fieber
TTITLE9=Truck Stop - Dann Heirate Doch Johnny Hill
TTITLE10=The Country Souires - Luky Luke
TTITLE11=Günter Gabriel - Er Fährt n'en 30 Tonner Diesel
TTITLE12=Zsa Zsa Schmidt - Mein Kleiner Freund
TTITLE13=Larry Schuba &Western Union - Lach Mal Wieder
TTITLE14=Colorado Five - Whiskey Song
TTITLE15=Joe Hodkins Boss Band - Wenn Du Freunde Hast
EXTD=
EXTT0=
EXTT1=
EXTT2=
EXTT3=
EXTT4=
EXTT5=
EXTT6=
EXTT7=
EXTT8=
EXTT9=
EXTT10=
EXTT11=
EXTT12=
EXTT13=
EXTT14=
EXTT15=
PLAYORDER=
